# xmcd
#
# Track frame offsets:
#	150
#	17012
#	33379
#	52095
#	70508
#	90423
#	104891
#	124511
#	143521
#	162446
#	174789
#	191089
#	206800
#	229557
#	253759
#	272330
#
# Disc length: 3828 seconds
#
# Revision: 3
# Processed by: cddbd v1.5.2PL0 Copyright (c) Steve Scherf et al.
# Submitted via: audiograbber 1.83.01
#
DISCID=d50ef210
DTITLE=Forever Hits - FH-3104 Hot Female Country
DYEAR=2006
DGENRE=Karaoke
TTITLE0=Gretchen Wilson - Redneck Woman
TTITLE1=Gretchen Wilson - Here For The Party
TTITLE2=Gretchen Wilson - When I Think About Cheatin'
TTITLE3=Trisha Yearwood - She's In Love With The Boy
TTITLE4=Trisha Yearwood - Song Remembers When, The
TTITLE5=Faith Hill - Let's Go To Vegas
TTITLE6=Faith Hill - Secret Of Life, The
TTITLE7=Faith Hill - Breathe
TTITLE8=Jamie O'Neal - There Is No Arizona
TTITLE9=Mindy McCready - Girl's Gotta Do (What A Girl's Gotta Do), A
TTITLE10=Martina McBride - Independence Day
TTITLE11=Martina McBride - In My Daughter's Eyes
TTITLE12=Trisha Yearwood and Don Henley - Walkaway Joe
TTITLE13=Shania Twain - From This Moment On
TTITLE14=Terri Clark - If I Were You
TTITLE15=Terri Clark - Poor Poor Pitiful Me
EXTD=
EXTT0=
EXTT1=
EXTT2=
EXTT3=
EXTT4=
EXTT5=
EXTT6=
EXTT7=
EXTT8=
EXTT9=
EXTT10=
EXTT11=
EXTT12=
EXTT13=
EXTT14=
EXTT15=
PLAYORDER=
